<?xml version="1.0" encoding="UTF-8" ?>
<svg version="1.1" width="22" height="45" xmlns="http://www.w3.org/2000/svg" shape-rendering="crispEdges">
<rect x="0" y="0" width="1" height="4" fill="#140000" />
<rect x="1" y="0" width="1" height="2" fill="#240506" />
<rect x="2" y="0" width="1" height="2" fill="#1B0001" />
<rect x="3" y="0" width="1" height="1" fill="#451717" />
<rect x="4" y="0" width="1" height="1" fill="#1B0001" />
<rect x="5" y="0" width="1" height="1" fill="#330E0D" />
<rect x="6" y="0" width="1" height="1" fill="#59211C" />
<rect x="7" y="0" width="1" height="2" fill="#240506" />
<rect x="8" y="0" width="1" height="2" fill="#451717" />
<rect x="9" y="0" width="1" height="3" fill="#59211C" />
<rect x="10" y="0" width="2" height="1" fill="#451717" />
<rect x="12" y="0" width="1" height="3" fill="#59211C" />
<rect x="13" y="0" width="1" height="2" fill="#240506" />
<rect x="14" y="0" width="1" height="2" fill="#330E0D" />
<rect x="15" y="0" width="1" height="2" fill="#451717" />
<rect x="16" y="0" width="1" height="1" fill="#1B0001" />
<rect x="17" y="0" width="1" height="1" fill="#240506" />
<rect x="18" y="0" width="1" height="2" fill="#330E0D" />
<rect x="19" y="0" width="1" height="2" fill="#140000" />
<rect x="20" y="0" width="1" height="3" fill="#240506" />
<rect x="21" y="0" width="1" height="4" fill="#140000" />
<rect x="3" y="1" width="1" height="1" fill="#330E0D" />
<rect x="4" y="1" width="3" height="1" fill="#451717" />
<rect x="10" y="1" width="1" height="1" fill="#330E0D" />
<rect x="11" y="1" width="1" height="1" fill="#59211C" />
<rect x="16" y="1" width="2" height="1" fill="#451717" />
<rect x="1" y="2" width="1" height="1" fill="#1B0001" />
<rect x="2" y="2" width="1" height="1" fill="#330E0D" />
<rect x="3" y="2" width="1" height="1" fill="#59211C" />
<rect x="4" y="2" width="2" height="1" fill="#6C2623" />
<rect x="6" y="2" width="1" height="1" fill="#59211C" />
<rect x="7" y="2" width="1" height="1" fill="#451717" />
<rect x="8" y="2" width="1" height="1" fill="#330E0D" />
<rect x="10" y="2" width="2" height="1" fill="#240506" />
<rect x="13" y="2" width="1" height="1" fill="#330E0D" />
<rect x="14" y="2" width="1" height="1" fill="#451717" />
<rect x="15" y="2" width="1" height="1" fill="#59211C" />
<rect x="16" y="2" width="2" height="1" fill="#6C2623" />
<rect x="18" y="2" width="1" height="1" fill="#59211C" />
<rect x="19" y="2" width="1" height="1" fill="#330E0D" />
<rect x="1" y="3" width="1" height="1" fill="#330E0D" />
<rect x="2" y="3" width="1" height="3" fill="#240506" />
<rect x="3" y="3" width="1" height="1" fill="#330E0D" />
<rect x="4" y="3" width="1" height="1" fill="#59211C" />
<rect x="5" y="3" width="1" height="1" fill="#6C2623" />
<rect x="6" y="3" width="3" height="1" fill="#883530" />
<rect x="9" y="3" width="1" height="1" fill="#6C2623" />
<rect x="10" y="3" width="2" height="1" fill="#59211C" />
<rect x="12" y="3" width="1" height="1" fill="#6C2623" />
<rect x="13" y="3" width="3" height="1" fill="#883530" />
<rect x="16" y="3" width="1" height="1" fill="#6C2623" />
<rect x="17" y="3" width="1" height="1" fill="#59211C" />
<rect x="18" y="3" width="1" height="1" fill="#330E0D" />
<rect x="19" y="3" width="1" height="3" fill="#240506" />
<rect x="20" y="3" width="1" height="1" fill="#330E0D" />
<rect x="0" y="4" width="1" height="1" fill="#330E0D" />
<rect x="1" y="4" width="1" height="1" fill="#451717" />
<rect x="3" y="4" width="1" height="1" fill="#240506" />
<rect x="4" y="4" width="1" height="1" fill="#330E0D" />
<rect x="5" y="4" width="1" height="1" fill="#59211C" />
<rect x="6" y="4" width="1" height="1" fill="#6C2623" />
<rect x="7" y="4" width="2" height="1" fill="#883530" />
<rect x="9" y="4" width="1" height="1" fill="#59211C" />
<rect x="10" y="4" width="2" height="2" fill="#883530" />
<rect x="12" y="4" width="1" height="1" fill="#59211C" />
<rect x="13" y="4" width="2" height="1" fill="#883530" />
<rect x="15" y="4" width="1" height="1" fill="#6C2623" />
<rect x="16" y="4" width="1" height="1" fill="#59211C" />
<rect x="17" y="4" width="1" height="1" fill="#330E0D" />
<rect x="18" y="4" width="1" height="1" fill="#240506" />
<rect x="20" y="4" width="1" height="1" fill="#451717" />
<rect x="21" y="4" width="1" height="1" fill="#330E0D" />
<rect x="0" y="5" width="1" height="2" fill="#451717" />
<rect x="1" y="5" width="1" height="2" fill="#240506" />
<rect x="3" y="5" width="1" height="1" fill="#330E0D" />
<rect x="4" y="5" width="1" height="1" fill="#240506" />
<rect x="5" y="5" width="1" height="1" fill="#1B0001" />
<rect x="6" y="5" width="1" height="1" fill="#330E0D" />
<rect x="7" y="5" width="2" height="1" fill="#59211C" />
<rect x="9" y="5" width="1" height="1" fill="#6C2623" />
<rect x="12" y="5" width="1" height="1" fill="#6C2623" />
<rect x="13" y="5" width="2" height="1" fill="#59211C" />
<rect x="15" y="5" width="1" height="1" fill="#330E0D" />
<rect x="16" y="5" width="1" height="1" fill="#1B0001" />
<rect x="17" y="5" width="1" height="1" fill="#240506" />
<rect x="18" y="5" width="1" height="1" fill="#330E0D" />
<rect x="20" y="5" width="1" height="2" fill="#240506" />
<rect x="21" y="5" width="1" height="2" fill="#451717" />
<rect x="2" y="6" width="1" height="1" fill="#330E0D" />
<rect x="3" y="6" width="1" height="1" fill="#6C2623" />
<rect x="4" y="6" width="1" height="2" fill="#1B0001" />
<rect x="5" y="6" width="1" height="1" fill="#330E0D" />
<rect x="6" y="6" width="1" height="1" fill="#59211C" />
<rect x="7" y="6" width="1" height="1" fill="#330E0D" />
<rect x="8" y="6" width="1" height="1" fill="#883530" />
<rect x="9" y="6" width="4" height="1" fill="#59211C" />
<rect x="13" y="6" width="1" height="1" fill="#883530" />
<rect x="14" y="6" width="1" height="1" fill="#330E0D" />
<rect x="15" y="6" width="1" height="1" fill="#59211C" />
<rect x="16" y="6" width="1" height="1" fill="#330E0D" />
<rect x="17" y="6" width="1" height="2" fill="#1B0001" />
<rect x="18" y="6" width="1" height="1" fill="#6C2623" />
<rect x="19" y="6" width="1" height="1" fill="#330E0D" />
<rect x="0" y="7" width="1" height="1" fill="#330E0D" />
<rect x="1" y="7" width="1" height="1" fill="#1B0001" />
<rect x="2" y="7" width="2" height="1" fill="#240506" />
<rect x="5" y="7" width="1" height="1" fill="#59211C" />
<rect x="6" y="7" width="1" height="1" fill="#6C2623" />
<rect x="7" y="7" width="1" height="1" fill="#59211C" />
<rect x="8" y="7" width="2" height="1" fill="#451717" />
<rect x="10" y="7" width="2" height="1" fill="#883530" />
<rect x="12" y="7" width="2" height="1" fill="#451717" />
<rect x="14" y="7" width="1" height="1" fill="#59211C" />
<rect x="15" y="7" width="1" height="1" fill="#6C2623" />
<rect x="16" y="7" width="1" height="1" fill="#59211C" />
<rect x="18" y="7" width="2" height="1" fill="#240506" />
<rect x="20" y="7" width="1" height="1" fill="#1B0001" />
<rect x="21" y="7" width="1" height="1" fill="#330E0D" />
<rect x="0" y="8" width="1" height="1" fill="#451717" />
<rect x="1" y="8" width="1" height="1" fill="#59211C" />
<rect x="2" y="8" width="1" height="1" fill="#240506" />
<rect x="3" y="8" width="1" height="2" fill="#59211C" />
<rect x="4" y="8" width="1" height="1" fill="#330E0D" />
<rect x="5" y="8" width="1" height="1" fill="#6C2623" />
<rect x="6" y="8" width="1" height="1" fill="#240506" />
<rect x="7" y="8" width="1" height="1" fill="#6C2623" />
<rect x="8" y="8" width="1" height="2" fill="#330E0D" />
<rect x="9" y="8" width="4" height="2" fill="#6C2623" />
<rect x="13" y="8" width="1" height="2" fill="#330E0D" />
<rect x="14" y="8" width="1" height="1" fill="#6C2623" />
<rect x="15" y="8" width="1" height="1" fill="#240506" />
<rect x="16" y="8" width="1" height="1" fill="#6C2623" />
<rect x="17" y="8" width="1" height="1" fill="#330E0D" />
<rect x="18" y="8" width="1" height="2" fill="#59211C" />
<rect x="19" y="8" width="1" height="1" fill="#240506" />
<rect x="20" y="8" width="1" height="1" fill="#59211C" />
<rect x="21" y="8" width="1" height="1" fill="#451717" />
<rect x="0" y="9" width="1" height="2" fill="#59211C" />
<rect x="1" y="9" width="1" height="3" fill="#240506" />
<rect x="2" y="9" width="1" height="2" fill="#59211C" />
<rect x="4" y="9" width="1" height="1" fill="#59211C" />
<rect x="5" y="9" width="1" height="2" fill="#240506" />
<rect x="6" y="9" width="2" height="1" fill="#59211C" />
<rect x="14" y="9" width="2" height="1" fill="#59211C" />
<rect x="16" y="9" width="1" height="2" fill="#240506" />
<rect x="17" y="9" width="1" height="1" fill="#59211C" />
<rect x="19" y="9" width="1" height="2" fill="#59211C" />
<rect x="20" y="9" width="1" height="3" fill="#240506" />
<rect x="21" y="9" width="1" height="2" fill="#59211C" />
<rect x="3" y="10" width="2" height="1" fill="#330E0D" />
<rect x="6" y="10" width="2" height="1" fill="#330E0D" />
<rect x="8" y="10" width="1" height="1" fill="#240506" />
<rect x="9" y="10" width="4" height="1" fill="#1B0001" />
<rect x="13" y="10" width="1" height="1" fill="#240506" />
<rect x="14" y="10" width="2" height="1" fill="#330E0D" />
<rect x="17" y="10" width="2" height="1" fill="#330E0D" />
<rect x="0" y="11" width="1" height="1" fill="#330E0D" />
<rect x="2" y="11" width="1" height="1" fill="#330E0D" />
<rect x="3" y="11" width="1" height="1" fill="#240506" />
<rect x="4" y="11" width="2" height="1" fill="#140000" />
<rect x="6" y="11" width="1" height="1" fill="#1B0001" />
<rect x="7" y="11" width="1" height="1" fill="#330E0D" />
<rect x="8" y="11" width="1" height="1" fill="#140000" />
<rect x="9" y="11" width="1" height="1" fill="#1B0001" />
<rect x="10" y="11" width="2" height="1" fill="#240506" />
<rect x="12" y="11" width="1" height="1" fill="#1B0001" />
<rect x="13" y="11" width="1" height="1" fill="#140000" />
<rect x="14" y="11" width="1" height="1" fill="#330E0D" />
<rect x="15" y="11" width="1" height="1" fill="#1B0001" />
<rect x="16" y="11" width="2" height="1" fill="#140000" />
<rect x="18" y="11" width="1" height="1" fill="#240506" />
<rect x="19" y="11" width="1" height="1" fill="#330E0D" />
<rect x="21" y="11" width="1" height="1" fill="#330E0D" />
<rect x="0" y="12" width="1" height="1" fill="#1B0001" />
<rect x="1" y="12" width="4" height="1" fill="#140000" />
<rect x="5" y="12" width="1" height="1" fill="#1B0001" />
<rect x="6" y="12" width="1" height="1" fill="#330E0D" />
<rect x="7" y="12" width="1" height="1" fill="#451717" />
<rect x="8" y="12" width="1" height="4" fill="#1B0001" />
<rect x="9" y="12" width="1" height="1" fill="#240506" />
<rect x="10" y="12" width="2" height="1" fill="#330E0D" />
<rect x="12" y="12" width="1" height="1" fill="#240506" />
<rect x="13" y="12" width="1" height="4" fill="#1B0001" />
<rect x="14" y="12" width="1" height="1" fill="#451717" />
<rect x="15" y="12" width="1" height="1" fill="#330E0D" />
<rect x="16" y="12" width="1" height="1" fill="#1B0001" />
<rect x="17" y="12" width="4" height="1" fill="#140000" />
<rect x="21" y="12" width="1" height="1" fill="#1B0001" />
<rect x="0" y="13" width="2" height="1" fill="#140000" />
<rect x="2" y="13" width="1" height="1" fill="#240506" />
<rect x="3" y="13" width="2" height="1" fill="#330E0D" />
<rect x="5" y="13" width="1" height="6" fill="#140000" />
<rect x="6" y="13" width="1" height="1" fill="#451717" />
<rect x="7" y="13" width="1" height="2" fill="#883530" />
<rect x="9" y="13" width="4" height="1" fill="#1B0001" />
<rect x="14" y="13" width="1" height="2" fill="#883530" />
<rect x="15" y="13" width="1" height="1" fill="#451717" />
<rect x="16" y="13" width="1" height="6" fill="#140000" />
<rect x="17" y="13" width="2" height="1" fill="#330E0D" />
<rect x="19" y="13" width="1" height="1" fill="#240506" />
<rect x="20" y="13" width="2" height="1" fill="#140000" />
<rect x="0" y="14" width="1" height="5" fill="#140000" />
<rect x="1" y="14" width="1" height="1" fill="#240506" />
<rect x="2" y="14" width="1" height="4" fill="#1B0001" />
<rect x="3" y="14" width="1" height="1" fill="#240506" />
<rect x="4" y="14" width="1" height="7" fill="#140000" />
<rect x="6" y="14" width="1" height="1" fill="#59211C" />
<rect x="9" y="14" width="1" height="1" fill="#1B0001" />
<rect x="10" y="14" width="2" height="9" fill="#140000" />
<rect x="12" y="14" width="1" height="1" fill="#1B0001" />
<rect x="15" y="14" width="1" height="1" fill="#59211C" />
<rect x="17" y="14" width="1" height="7" fill="#140000" />
<rect x="18" y="14" width="1" height="1" fill="#240506" />
<rect x="19" y="14" width="1" height="4" fill="#1B0001" />
<rect x="20" y="14" width="1" height="1" fill="#240506" />
<rect x="21" y="14" width="1" height="5" fill="#140000" />
<rect x="1" y="15" width="1" height="3" fill="#1B0001" />
<rect x="3" y="15" width="1" height="3" fill="#140000" />
<rect x="6" y="15" width="1" height="1" fill="#451717" />
<rect x="7" y="15" width="1" height="2" fill="#6C2623" />
<rect x="9" y="15" width="1" height="4" fill="#140000" />
<rect x="12" y="15" width="1" height="4" fill="#140000" />
<rect x="14" y="15" width="1" height="2" fill="#6C2623" />
<rect x="15" y="15" width="1" height="1" fill="#451717" />
<rect x="18" y="15" width="1" height="3" fill="#140000" />
<rect x="20" y="15" width="1" height="3" fill="#1B0001" />
<rect x="6" y="16" width="1" height="1" fill="#330E0D" />
<rect x="8" y="16" width="1" height="11" fill="#140000" />
<rect x="13" y="16" width="1" height="11" fill="#140000" />
<rect x="15" y="16" width="1" height="1" fill="#330E0D" />
<rect x="6" y="17" width="1" height="1" fill="#240506" />
<rect x="7" y="17" width="1" height="1" fill="#59211C" />
<rect x="14" y="17" width="1" height="1" fill="#59211C" />
<rect x="15" y="17" width="1" height="1" fill="#240506" />
<rect x="1" y="18" width="1" height="6" fill="#240506" />
<rect x="2" y="18" width="1" height="3" fill="#140000" />
<rect x="3" y="18" width="1" height="2" fill="#1B0001" />
<rect x="6" y="18" width="1" height="1" fill="#1B0001" />
<rect x="7" y="18" width="1" height="1" fill="#451717" />
<rect x="14" y="18" width="1" height="1" fill="#451717" />
<rect x="15" y="18" width="1" height="1" fill="#1B0001" />
<rect x="18" y="18" width="1" height="2" fill="#1B0001" />
<rect x="19" y="18" width="1" height="3" fill="#140000" />
<rect x="20" y="18" width="1" height="6" fill="#240506" />
<rect x="0" y="19" width="1" height="2" fill="#1B0001" />
<rect x="5" y="19" width="1" height="3" fill="#1B0001" />
<rect x="6" y="19" width="1" height="9" fill="#140000" />
<rect x="7" y="19" width="1" height="1" fill="#330E0D" />
<rect x="9" y="19" width="1" height="2" fill="#1B0001" />
<rect x="12" y="19" width="1" height="2" fill="#1B0001" />
<rect x="14" y="19" width="1" height="1" fill="#330E0D" />
<rect x="15" y="19" width="1" height="9" fill="#140000" />
<rect x="16" y="19" width="1" height="3" fill="#1B0001" />
<rect x="21" y="19" width="1" height="2" fill="#1B0001" />
<rect x="3" y="20" width="1" height="6" fill="#140000" />
<rect x="7" y="20" width="1" height="1" fill="#240506" />
<rect x="14" y="20" width="1" height="1" fill="#240506" />
<rect x="18" y="20" width="1" height="6" fill="#140000" />
<rect x="0" y="21" width="1" height="3" fill="#140000" />
<rect x="2" y="21" width="1" height="2" fill="#240506" />
<rect x="4" y="21" width="1" height="3" fill="#1B0001" />
<rect x="7" y="21" width="1" height="7" fill="#140000" />
<rect x="9" y="21" width="1" height="2" fill="#240506" />
<rect x="12" y="21" width="1" height="2" fill="#240506" />
<rect x="14" y="21" width="1" height="7" fill="#140000" />
<rect x="17" y="21" width="1" height="3" fill="#1B0001" />
<rect x="19" y="21" width="1" height="2" fill="#240506" />
<rect x="21" y="21" width="1" height="3" fill="#140000" />
<rect x="5" y="22" width="1" height="2" fill="#140000" />
<rect x="16" y="22" width="1" height="2" fill="#140000" />
<rect x="2" y="23" width="1" height="1" fill="#330E0D" />
<rect x="9" y="23" width="1" height="2" fill="#330E0D" />
<rect x="10" y="23" width="2" height="3" fill="#1B0001" />
<rect x="12" y="23" width="1" height="2" fill="#330E0D" />
<rect x="19" y="23" width="1" height="1" fill="#330E0D" />
<rect x="0" y="24" width="1" height="1" fill="#240506" />
<rect x="1" y="24" width="1" height="1" fill="#1B0001" />
<rect x="2" y="24" width="1" height="2" fill="#451717" />
<rect x="4" y="24" width="1" height="1" fill="#330E0D" />
<rect x="5" y="24" width="1" height="2" fill="#1B0001" />
<rect x="16" y="24" width="1" height="2" fill="#1B0001" />
<rect x="17" y="24" width="1" height="1" fill="#330E0D" />
<rect x="19" y="24" width="1" height="2" fill="#451717" />
<rect x="20" y="24" width="1" height="1" fill="#1B0001" />
<rect x="21" y="24" width="1" height="1" fill="#240506" />
<rect x="0" y="25" width="1" height="3" fill="#330E0D" />
<rect x="1" y="25" width="1" height="3" fill="#140000" />
<rect x="4" y="25" width="1" height="1" fill="#240506" />
<rect x="9" y="25" width="1" height="3" fill="#240506" />
<rect x="12" y="25" width="1" height="3" fill="#240506" />
<rect x="17" y="25" width="1" height="1" fill="#240506" />
<rect x="20" y="25" width="1" height="3" fill="#140000" />
<rect x="21" y="25" width="1" height="3" fill="#330E0D" />
<rect x="2" y="26" width="1" height="1" fill="#330E0D" />
<rect x="3" y="26" width="2" height="1" fill="#1B0001" />
<rect x="5" y="26" width="1" height="3" fill="#330E0D" />
<rect x="10" y="26" width="2" height="2" fill="#240506" />
<rect x="16" y="26" width="1" height="3" fill="#330E0D" />
<rect x="17" y="26" width="2" height="1" fill="#1B0001" />
<rect x="19" y="26" width="1" height="1" fill="#330E0D" />
<rect x="2" y="27" width="1" height="1" fill="#240506" />
<rect x="3" y="27" width="1" height="1" fill="#330E0D" />
<rect x="4" y="27" width="1" height="2" fill="#1B0001" />
<rect x="8" y="27" width="1" height="1" fill="#240506" />
<rect x="13" y="27" width="1" height="1" fill="#240506" />
<rect x="17" y="27" width="1" height="2" fill="#1B0001" />
<rect x="18" y="27" width="1" height="1" fill="#330E0D" />
<rect x="19" y="27" width="1" height="1" fill="#240506" />
<rect x="0" y="28" width="1" height="1" fill="#240506" />
<rect x="1" y="28" width="2" height="1" fill="#1B0001" />
<rect x="3" y="28" width="1" height="2" fill="#451717" />
<rect x="6" y="28" width="1" height="3" fill="#330E0D" />
<rect x="7" y="28" width="1" height="2" fill="#1B0001" />
<rect x="8" y="28" width="1" height="1" fill="#59211C" />
<rect x="9" y="28" width="1" height="4" fill="#140000" />
<rect x="10" y="28" width="2" height="2" fill="#330E0D" />
<rect x="12" y="28" width="1" height="4" fill="#140000" />
<rect x="13" y="28" width="1" height="1" fill="#59211C" />
<rect x="14" y="28" width="1" height="2" fill="#1B0001" />
<rect x="15" y="28" width="1" height="3" fill="#330E0D" />
<rect x="18" y="28" width="1" height="2" fill="#451717" />
<rect x="19" y="28" width="2" height="1" fill="#1B0001" />
<rect x="21" y="28" width="1" height="1" fill="#240506" />
<rect x="0" y="29" width="1" height="9" fill="#140000" />
<rect x="1" y="29" width="1" height="1" fill="#330E0D" />
<rect x="2" y="29" width="1" height="2" fill="#140000" />
<rect x="4" y="29" width="1" height="1" fill="#330E0D" />
<rect x="5" y="29" width="1" height="1" fill="#240506" />
<rect x="8" y="29" width="1" height="1" fill="#6C2623" />
<rect x="13" y="29" width="1" height="1" fill="#6C2623" />
<rect x="16" y="29" width="1" height="1" fill="#240506" />
<rect x="17" y="29" width="1" height="1" fill="#330E0D" />
<rect x="19" y="29" width="1" height="2" fill="#140000" />
<rect x="20" y="29" width="1" height="1" fill="#330E0D" />
<rect x="21" y="29" width="1" height="9" fill="#140000" />
<rect x="1" y="30" width="1" height="1" fill="#451717" />
<rect x="3" y="30" width="1" height="1" fill="#330E0D" />
<rect x="4" y="30" width="1" height="1" fill="#59211C" />
<rect x="5" y="30" width="1" height="1" fill="#1B0001" />
<rect x="7" y="30" width="1" height="2" fill="#330E0D" />
<rect x="8" y="30" width="1" height="2" fill="#883530" />
<rect x="10" y="30" width="2" height="1" fill="#240506" />
<rect x="13" y="30" width="1" height="2" fill="#883530" />
<rect x="14" y="30" width="1" height="2" fill="#330E0D" />
<rect x="16" y="30" width="1" height="1" fill="#1B0001" />
<rect x="17" y="30" width="1" height="1" fill="#59211C" />
<rect x="18" y="30" width="1" height="1" fill="#330E0D" />
<rect x="20" y="30" width="1" height="1" fill="#451717" />
<rect x="1" y="31" width="2" height="1" fill="#330E0D" />
<rect x="3" y="31" width="1" height="1" fill="#240506" />
<rect x="4" y="31" width="1" height="1" fill="#330E0D" />
<rect x="5" y="31" width="1" height="1" fill="#59211C" />
<rect x="6" y="31" width="1" height="1" fill="#140000" />
<rect x="10" y="31" width="2" height="1" fill="#1B0001" />
<rect x="15" y="31" width="1" height="1" fill="#140000" />
<rect x="16" y="31" width="1" height="1" fill="#59211C" />
<rect x="17" y="31" width="1" height="1" fill="#330E0D" />
<rect x="18" y="31" width="1" height="1" fill="#240506" />
<rect x="19" y="31" width="2" height="1" fill="#330E0D" />
<rect x="1" y="32" width="1" height="3" fill="#140000" />
<rect x="2" y="32" width="1" height="2" fill="#451717" />
<rect x="3" y="32" width="1" height="2" fill="#1B0001" />
<rect x="4" y="32" width="1" height="2" fill="#240506" />
<rect x="5" y="32" width="1" height="1" fill="#451717" />
<rect x="6" y="32" width="2" height="1" fill="#59211C" />
<rect x="8" y="32" width="1" height="2" fill="#6C2623" />
<rect x="9" y="32" width="1" height="1" fill="#330E0D" />
<rect x="10" y="32" width="2" height="1" fill="#140000" />
<rect x="12" y="32" width="1" height="1" fill="#330E0D" />
<rect x="13" y="32" width="1" height="2" fill="#6C2623" />
<rect x="14" y="32" width="2" height="1" fill="#59211C" />
<rect x="16" y="32" width="1" height="1" fill="#451717" />
<rect x="17" y="32" width="1" height="2" fill="#240506" />
<rect x="18" y="32" width="1" height="2" fill="#1B0001" />
<rect x="19" y="32" width="1" height="2" fill="#451717" />
<rect x="20" y="32" width="1" height="3" fill="#140000" />
<rect x="5" y="33" width="1" height="1" fill="#330E0D" />
<rect x="6" y="33" width="1" height="1" fill="#451717" />
<rect x="7" y="33" width="1" height="1" fill="#6C2623" />
<rect x="9" y="33" width="1" height="1" fill="#6C2623" />
<rect x="10" y="33" width="2" height="1" fill="#59211C" />
<rect x="12" y="33" width="1" height="1" fill="#6C2623" />
<rect x="14" y="33" width="1" height="1" fill="#6C2623" />
<rect x="15" y="33" width="1" height="1" fill="#451717" />
<rect x="16" y="33" width="1" height="1" fill="#330E0D" />
<rect x="2" y="34" width="1" height="1" fill="#330E0D" />
<rect x="3" y="34" width="1" height="1" fill="#451717" />
<rect x="4" y="34" width="1" height="2" fill="#1B0001" />
<rect x="5" y="34" width="2" height="1" fill="#240506" />
<rect x="7" y="34" width="2" height="1" fill="#59211C" />
<rect x="9" y="34" width="1" height="1" fill="#451717" />
<rect x="10" y="34" width="2" height="2" fill="#330E0D" />
<rect x="12" y="34" width="1" height="1" fill="#451717" />
<rect x="13" y="34" width="2" height="1" fill="#59211C" />
<rect x="15" y="34" width="2" height="1" fill="#240506" />
<rect x="17" y="34" width="1" height="2" fill="#1B0001" />
<rect x="18" y="34" width="1" height="1" fill="#451717" />
<rect x="19" y="34" width="1" height="1" fill="#330E0D" />
<rect x="1" y="35" width="1" height="2" fill="#240506" />
<rect x="2" y="35" width="1" height="3" fill="#140000" />
<rect x="3" y="35" width="1" height="1" fill="#59211C" />
<rect x="5" y="35" width="1" height="2" fill="#1B0001" />
<rect x="6" y="35" width="1" height="1" fill="#240506" />
<rect x="7" y="35" width="1" height="1" fill="#330E0D" />
<rect x="8" y="35" width="1" height="1" fill="#451717" />
<rect x="9" y="35" width="1" height="1" fill="#330E0D" />
<rect x="12" y="35" width="1" height="1" fill="#330E0D" />
<rect x="13" y="35" width="1" height="1" fill="#451717" />
<rect x="14" y="35" width="1" height="1" fill="#330E0D" />
<rect x="15" y="35" width="1" height="1" fill="#240506" />
<rect x="16" y="35" width="1" height="2" fill="#1B0001" />
<rect x="18" y="35" width="1" height="1" fill="#59211C" />
<rect x="19" y="35" width="1" height="3" fill="#140000" />
<rect x="20" y="35" width="1" height="2" fill="#240506" />
<rect x="3" y="36" width="1" height="1" fill="#330E0D" />
<rect x="4" y="36" width="1" height="1" fill="#59211C" />
<rect x="6" y="36" width="1" height="1" fill="#1B0001" />
<rect x="7" y="36" width="1" height="1" fill="#240506" />
<rect x="8" y="36" width="1" height="1" fill="#59211C" />
<rect x="9" y="36" width="1" height="1" fill="#451717" />
<rect x="10" y="36" width="2" height="1" fill="#59211C" />
<rect x="12" y="36" width="1" height="1" fill="#451717" />
<rect x="13" y="36" width="1" height="1" fill="#59211C" />
<rect x="14" y="36" width="1" height="1" fill="#240506" />
<rect x="15" y="36" width="1" height="1" fill="#1B0001" />
<rect x="17" y="36" width="1" height="1" fill="#59211C" />
<rect x="18" y="36" width="1" height="1" fill="#330E0D" />
<rect x="1" y="37" width="1" height="1" fill="#330E0D" />
<rect x="3" y="37" width="1" height="1" fill="#140000" />
<rect x="4" y="37" width="1" height="1" fill="#330E0D" />
<rect x="5" y="37" width="3" height="1" fill="#59211C" />
<rect x="8" y="37" width="1" height="1" fill="#451717" />
<rect x="9" y="37" width="1" height="2" fill="#330E0D" />
<rect x="10" y="37" width="2" height="1" fill="#451717" />
<rect x="12" y="37" width="1" height="2" fill="#330E0D" />
<rect x="13" y="37" width="1" height="1" fill="#451717" />
<rect x="14" y="37" width="3" height="1" fill="#59211C" />
<rect x="17" y="37" width="1" height="1" fill="#330E0D" />
<rect x="18" y="37" width="1" height="1" fill="#140000" />
<rect x="20" y="37" width="1" height="1" fill="#330E0D" />
<rect x="0" y="38" width="1" height="2" fill="#240506" />
<rect x="1" y="38" width="1" height="1" fill="#451717" />
<rect x="2" y="38" width="1" height="1" fill="#330E0D" />
<rect x="3" y="38" width="1" height="1" fill="#240506" />
<rect x="4" y="38" width="1" height="2" fill="#140000" />
<rect x="5" y="38" width="1" height="1" fill="#330E0D" />
<rect x="6" y="38" width="2" height="1" fill="#451717" />
<rect x="8" y="38" width="1" height="2" fill="#330E0D" />
<rect x="10" y="38" width="2" height="1" fill="#330E0D" />
<rect x="13" y="38" width="1" height="2" fill="#330E0D" />
<rect x="14" y="38" width="2" height="1" fill="#451717" />
<rect x="16" y="38" width="1" height="1" fill="#330E0D" />
<rect x="17" y="38" width="1" height="2" fill="#140000" />
<rect x="18" y="38" width="1" height="1" fill="#240506" />
<rect x="19" y="38" width="1" height="1" fill="#330E0D" />
<rect x="20" y="38" width="1" height="1" fill="#451717" />
<rect x="21" y="38" width="1" height="2" fill="#240506" />
<rect x="1" y="39" width="1" height="1" fill="#240506" />
<rect x="2" y="39" width="2" height="1" fill="#140000" />
<rect x="5" y="39" width="1" height="1" fill="#140000" />
<rect x="6" y="39" width="2" height="1" fill="#330E0D" />
<rect x="9" y="39" width="4" height="3" fill="#140000" />
<rect x="14" y="39" width="2" height="1" fill="#330E0D" />
<rect x="16" y="39" width="1" height="1" fill="#140000" />
<rect x="18" y="39" width="2" height="1" fill="#140000" />
<rect x="20" y="39" width="1" height="1" fill="#240506" />
<rect x="0" y="40" width="2" height="1" fill="#451717" />
<rect x="2" y="40" width="1" height="1" fill="#330E0D" />
<rect x="3" y="40" width="3" height="1" fill="#240506" />
<rect x="6" y="40" width="3" height="4" fill="#140000" />
<rect x="13" y="40" width="3" height="3" fill="#140000" />
<rect x="16" y="40" width="3" height="1" fill="#240506" />
<rect x="19" y="40" width="1" height="1" fill="#330E0D" />
<rect x="20" y="40" width="2" height="1" fill="#451717" />
<rect x="0" y="41" width="2" height="1" fill="#1B0001" />
<rect x="2" y="41" width="2" height="1" fill="#240506" />
<rect x="4" y="41" width="1" height="1" fill="#1B0001" />
<rect x="5" y="41" width="1" height="4" fill="#140000" />
<rect x="16" y="41" width="1" height="4" fill="#140000" />
<rect x="17" y="41" width="1" height="1" fill="#1B0001" />
<rect x="18" y="41" width="2" height="1" fill="#240506" />
<rect x="20" y="41" width="2" height="1" fill="#1B0001" />
<rect x="0" y="42" width="2" height="1" fill="#240506" />
<rect x="2" y="42" width="3" height="3" fill="#140000" />
<rect x="9" y="42" width="1" height="2" fill="#1B0001" />
<rect x="10" y="42" width="2" height="1" fill="#140000" />
<rect x="12" y="42" width="1" height="2" fill="#1B0001" />
<rect x="17" y="42" width="3" height="3" fill="#140000" />
<rect x="20" y="42" width="2" height="1" fill="#240506" />
<rect x="0" y="43" width="2" height="2" fill="#140000" />
<rect x="10" y="43" width="1" height="1" fill="#140000" />
<rect x="11" y="43" width="1" height="1" fill="#240506" />
<rect x="13" y="43" width="2" height="2" fill="#140000" />
<rect x="15" y="43" width="1" height="2" fill="#1B0001" />
<rect x="20" y="43" width="2" height="2" fill="#140000" />
<rect x="6" y="44" width="1" height="1" fill="#1B0001" />
<rect x="7" y="44" width="2" height="1" fill="#140000" />
<rect x="9" y="44" width="1" height="1" fill="#240506" />
<rect x="10" y="44" width="2" height="1" fill="#1B0001" />
<rect x="12" y="44" width="1" height="1" fill="#240506" />
</svg>