<?xml version="1.0" encoding="UTF-8" ?>
<svg version="1.1" width="16" height="15" xmlns="http://www.w3.org/2000/svg" shape-rendering="crispEdges">
<rect x="0" y="0" width="2" height="1" fill="#212A23" />
<rect x="2" y="0" width="6" height="1" fill="#151C16" />
<rect x="8" y="0" width="1" height="3" fill="#212A23" />
<rect x="9" y="0" width="1" height="1" fill="#2E3830" />
<rect x="10" y="0" width="3" height="1" fill="#404E43" />
<rect x="13" y="0" width="2" height="1" fill="#2E3830" />
<rect x="15" y="0" width="1" height="2" fill="#212A23" />
<rect x="0" y="1" width="1" height="2" fill="#212A23" />
<rect x="1" y="1" width="5" height="1" fill="#151C16" />
<rect x="6" y="1" width="2" height="1" fill="#212A23" />
<rect x="9" y="1" width="1" height="2" fill="#212A23" />
<rect x="10" y="1" width="4" height="1" fill="#2E3830" />
<rect x="14" y="1" width="1" height="1" fill="#212A23" />
<rect x="1" y="2" width="1" height="1" fill="#212A23" />
<rect x="2" y="2" width="3" height="1" fill="#151C16" />
<rect x="5" y="2" width="1" height="1" fill="#212A23" />
<rect x="6" y="2" width="2" height="1" fill="#2E3830" />
<rect x="10" y="2" width="3" height="1" fill="#212A23" />
<rect x="13" y="2" width="3" height="1" fill="#2E3830" />
<rect x="0" y="3" width="2" height="1" fill="#2E3830" />
<rect x="2" y="3" width="3" height="1" fill="#212A23" />
<rect x="5" y="3" width="2" height="1" fill="#2E3830" />
<rect x="7" y="3" width="1" height="1" fill="#212A23" />
<rect x="8" y="3" width="4" height="2" fill="#151C16" />
<rect x="12" y="3" width="3" height="1" fill="#212A23" />
<rect x="15" y="3" width="1" height="1" fill="#2E3830" />
<rect x="0" y="4" width="1" height="1" fill="#2E3830" />
<rect x="1" y="4" width="2" height="1" fill="#404E43" />
<rect x="3" y="4" width="2" height="1" fill="#2E3830" />
<rect x="5" y="4" width="2" height="1" fill="#212A23" />
<rect x="7" y="4" width="1" height="2" fill="#151C16" />
<rect x="12" y="4" width="2" height="2" fill="#151C16" />
<rect x="14" y="4" width="2" height="1" fill="#212A23" />
<rect x="0" y="5" width="2" height="1" fill="#404E43" />
<rect x="2" y="5" width="1" height="1" fill="#2E3830" />
<rect x="3" y="5" width="2" height="1" fill="#212A23" />
<rect x="5" y="5" width="2" height="2" fill="#151C16" />
<rect x="8" y="5" width="1" height="1" fill="#151C16" />
<rect x="9" y="5" width="1" height="5" fill="#212A23" />
<rect x="10" y="5" width="2" height="1" fill="#151C16" />
<rect x="14" y="5" width="1" height="2" fill="#212A23" />
<rect x="15" y="5" width="1" height="3" fill="#2E3830" />
<rect x="0" y="6" width="1" height="1" fill="#2E3830" />
<rect x="1" y="6" width="3" height="1" fill="#212A23" />
<rect x="4" y="6" width="1" height="4" fill="#151C16" />
<rect x="7" y="6" width="2" height="1" fill="#212A23" />
<rect x="10" y="6" width="4" height="2" fill="#212A23" />
<rect x="0" y="7" width="2" height="2" fill="#212A23" />
<rect x="2" y="7" width="2" height="1" fill="#151C16" />
<rect x="5" y="7" width="1" height="4" fill="#151C16" />
<rect x="6" y="7" width="1" height="2" fill="#212A23" />
<rect x="7" y="7" width="1" height="3" fill="#151C16" />
<rect x="8" y="7" width="1" height="3" fill="#212A23" />
<rect x="14" y="7" width="1" height="1" fill="#2E3830" />
<rect x="2" y="8" width="1" height="2" fill="#212A23" />
<rect x="3" y="8" width="1" height="1" fill="#151C16" />
<rect x="10" y="8" width="1" height="1" fill="#212A23" />
<rect x="11" y="8" width="2" height="2" fill="#151C16" />
<rect x="13" y="8" width="3" height="1" fill="#212A23" />
<rect x="0" y="9" width="1" height="2" fill="#151C16" />
<rect x="1" y="9" width="1" height="1" fill="#212A23" />
<rect x="3" y="9" width="1" height="2" fill="#212A23" />
<rect x="6" y="9" width="1" height="4" fill="#151C16" />
<rect x="10" y="9" width="1" height="2" fill="#151C16" />
<rect x="13" y="9" width="2" height="1" fill="#212A23" />
<rect x="15" y="9" width="1" height="2" fill="#151C16" />
<rect x="1" y="10" width="2" height="1" fill="#151C16" />
<rect x="4" y="10" width="1" height="1" fill="#212A23" />
<rect x="7" y="10" width="1" height="1" fill="#212A23" />
<rect x="8" y="10" width="2" height="1" fill="#151C16" />
<rect x="11" y="10" width="1" height="4" fill="#151C16" />
<rect x="12" y="10" width="2" height="1" fill="#212A23" />
<rect x="14" y="10" width="1" height="2" fill="#151C16" />
<rect x="0" y="11" width="2" height="4" fill="#090D0A" />
<rect x="2" y="11" width="3" height="1" fill="#151C16" />
<rect x="5" y="11" width="1" height="1" fill="#212A23" />
<rect x="7" y="11" width="2" height="1" fill="#151C16" />
<rect x="9" y="11" width="2" height="1" fill="#090D0A" />
<rect x="12" y="11" width="2" height="1" fill="#151C16" />
<rect x="15" y="11" width="1" height="4" fill="#090D0A" />
<rect x="2" y="12" width="3" height="3" fill="#090D0A" />
<rect x="5" y="12" width="1" height="1" fill="#151C16" />
<rect x="7" y="12" width="1" height="2" fill="#151C16" />
<rect x="8" y="12" width="2" height="3" fill="#090D0A" />
<rect x="10" y="12" width="1" height="1" fill="#151C16" />
<rect x="12" y="12" width="1" height="1" fill="#151C16" />
<rect x="13" y="12" width="2" height="3" fill="#090D0A" />
<rect x="5" y="13" width="2" height="2" fill="#090D0A" />
<rect x="10" y="13" width="1" height="2" fill="#090D0A" />
<rect x="12" y="13" width="1" height="2" fill="#090D0A" />
<rect x="7" y="14" width="1" height="1" fill="#090D0A" />
<rect x="11" y="14" width="1" height="1" fill="#090D0A" />
</svg>